#!OML:ASF F:\twosubjects\two\Thursday\Session 1\Rory.ASF
:FULLY-SPECIFIED
:DEGREES
488
root 7.70304 10.2133 12.8629 143.851 -10.9958 190.446
lowerback 38.4886 11.2776 -1.65655
upperback 18.0199 6.794 -1.70909
thorax 1.11836 0.462745 -3.14564
lowerneck -2.97543 -12.3654 -13.0487
upperneck -7.82648 -16.9875 27.3615
head 1.99385 -9.22698 9.6839
rclavicle 2.70347e-014 1.01778e-013
rhumerus -1.31485 20.1234 -75.1254
rradius 62.8244
rwrist 1.0799
rhand -34.068 38.3437
rfingers 7.12502
rthumb -7.24521 8.48771
lclavicle 2.70347e-014 1.01778e-013
lhumerus 11.11 -25.6777 53.3645
lradius 87.4582
lwrist -1.87622
lhand -2.31004 15.8352
lfingers 7.12502
lthumb 23.376 44.4357
rfemur -47.6431 8.44163 -0.13017
rtibia 82.4382
rfoot 11.0342 -8.01308
rtoes -8.37926
lfemur -50.9664 22.0439 14.3541
ltibia 70.2368
lfoot 23.1374 -0.629467
ltoes 18.7884
489
root 7.69787 10.2116 12.8703 143.639 -10.7488 190.785
lowerback 38.6086 11.1469 -1.2893
upperback 17.8686 6.80179 -1.687
thorax 0.951119 0.511573 -3.31298
lowerneck -2.68537 -12.2805 -13.129
upperneck -7.76917 -16.8908 27.3727
head 1.94942 -9.18701 9.7346
rclavicle 9.54166e-015 7.63333e-014
rhumerus -1.71276 20.0875 -75.5042
rradius 63.2532
rwrist 1.08668
rhand -33.8459 38.0853
rfingers 7.12502
rthumb -7.03086 8.22211
lclavicle 9.54166e-015 7.63333e-014
lhumerus 10.7311 -25.7271 53.6235
lradius 87.3939
lwrist -2.00358
lhand -2.36653 16.2263
lfingers 7.12502
lthumb 23.3218 44.8336
rfemur -47.713 8.32955 0.569819
rtibia 82.5995
rfoot 10.7622 -10.4836
rtoes 1.15523
lfemur -50.8347 22.114 14.8259
ltibia 70.2267
lfoot 23.1306 -0.774445
ltoes 18.747
490
root 7.6959 10.2216 12.8907 143.354 -10.8008 190.668
lowerback 39.1423 11.292 -1.04523
upperback 17.8357 6.96108 -1.8224
thorax 0.807834 0.586731 -3.65237
lowerneck -2.8324 -12.3456 -12.791
upperneck -7.74571 -17.0019 27.4235
head 1.97782 -9.24864 9.67007
rclavicle -4.77083e-015 -8.5875e-014
rhumerus -1.96725 19.4272 -75.7671
rradius 63.5321
rwrist 1.28615
rhand -33.6878 37.988
rfingers 7.12502
rthumb -6.87817 8.11976
lclavicle -4.77083e-015 -8.5875e-014
lhumerus 11.0223 -26.1613 53.4239
lradius 87.3755
lwrist -1.82253
lhand -2.7707 16.1724
lfingers 7.12502
lthumb 22.934 44.8284
rfemur -47.6244 8.16862 0.726175
rtibia 82.7597
rfoot 12.119 -9.74028
rtoes -3.84599
lfemur -50.4558 21.9214 14.7272
ltibia 70.1422
lfoot 23.0259 -0.761565
ltoes 18.7332
491
root 7.69488 10.2291 12.9069 143.145 -11.0541 190.224
lowerback 39.7729 11.4575 -1.43131
upperback 17.6718 6.92031 -1.88078
thorax 0.56552 0.513183 -3.53751
lowerneck -3.15363 -12.2915 -13.437
upperneck -7.37131 -16.9544 27.6967
head 2.22329 -9.16738 9.83171
rclavicle -2.06736e-014 3.18055e-015
rhumerus -2.00941 19.4682 -75.7041
rradius 63.8095
rwrist 1.30606
rhand -34.0613 38.1797
rfingers 7.12502
rthumb -7.23875 8.32354
lclavicle -2.06736e-014 3.18055e-015
lhumerus 10.6992 -26.0539 53.7424
lradius 87.5371
lwrist -1.60749
lhand -2.97059 16.1903
lfingers 7.12502
lthumb 22.7422 44.87
rfemur -47.5873 8.1077 0.454382
rtibia 82.9608
rfoot 12.4125 -10.5227
rtoes -2.32248
lfemur -50.0708 21.6327 14.2329
ltibia 70.0677
lfoot 22.8985 -0.374167
ltoes 19.3581
492
root 7.69404 10.2247 12.9057 143.249 -11.1795 189.907
lowerback 39.7298 11.6038 -1.8472
upperback 17.6546 6.94851 -1.93046
thorax 0.523379 0.499464 -3.3924
lowerneck -3.2287 -12.272 -13.6679
upperneck -7.44063 -16.9134 27.8166
head 2.24473 -9.1462 9.90999
rclavicle -3.97569e-014 -3.81667e-014
rhumerus -1.9935 19.283 -75.8572
rradius 64.1162
rwrist 1.13546
rhand -34.1302 37.943
rfingers 7.12502
rthumb -7.3052 8.08907
lclavicle -3.97569e-014 -3.81667e-014
lhumerus 10.5135 -25.8536 54.0105
lradius 87.6405
lwrist -1.72012
lhand -2.79092 16.115
lfingers 7.12502
lthumb 22.9146 44.7734
rfemur -48.0097 8.06022 0.26892
rtibia 83.2921
rfoot 12.6883 -10.6418
rtoes 0.427654
lfemur -50.0586 21.6658 13.8755
ltibia 70.0716
lfoot 22.8803 -0.219089
ltoes 19.3538
493
root 7.68688 10.2087 12.903 143.336 -11.1685 189.896
lowerback 39.5775 11.571 -1.87072
upperback 17.6805 6.91016 -2.00133
thorax 0.600847 0.486704 -3.43573
lowerneck -3.15 -12.297 -13.1756
upperneck -7.90251 -16.887 27.5053
head 2.01153 -9.17859 9.75429
rclavicle -4.6118e-014 -1.04958e-013
rhumerus -1.90906 19.1238 -76.096
rradius 64.4336
rwrist 0.932748
rhand -34.3774 37.7028
rfingers 7.12502
rthumb -7.54384 7.85729
lclavicle -4.6118e-014 -1.04958e-013
lhumerus 10.581 -25.7401 53.8586
lradius 87.5566
lwrist -1.95556
lhand -2.95496 15.7102
lfingers 7.12502
lthumb 22.7572 44.388
rfemur -48.4776 8.03597 0.401483
rtibia 83.6768
rfoot 12.1665 -11.6022
rtoes 9.52498
lfemur -50.2514 21.8557 13.7937
ltibia 70.1655
lfoot 23.0066 -0.561781
ltoes 18.7413
494
root 7.67538 10.1965 12.9061 143.353 -11.1879 189.936
lowerback 39.5607 11.4874 -1.76516
upperback 17.7088 6.83948 -2.02641
thorax 0.64754 0.459929 -3.49035
lowerneck -3.42939 -12.3876 -12.7902
upperneck -7.91214 -16.9688 27.0153
head 1.97761 -9.19615 9.50328
rclavicle -7.63333e-014 -5.08889e-014
rhumerus -1.86985 19.0865 -76.1628
rradius 64.816
rwrist 0.961923
rhand -34.7913 37.3959
rfingers 7.12502
rthumb -7.9433 7.56512
lclavicle -7.63333e-014 -5.08889e-014
lhumerus 10.728 -25.6146 53.824
lradius 87.4334
lwrist -2.11665
lhand -3.20271 15.6047
lfingers 7.12502
lthumb 22.5194 44.3115
rfemur -48.785 7.96445 0.558021
rtibia 83.9832
rfoot 11.9708 -11.8074
rtoes 13.9991
lfemur -50.4713 22.1071 13.6632
ltibia 70.2794
lfoot 23.0327 -0.882821
ltoes 18.2062
495
root 7.66854 10.1975 12.9103 143.311 -11.2222 189.925
lowerback 39.6146 11.4538 -1.7953
upperback 17.6644 6.80161 -1.98648
thorax 0.572385 0.442511 -3.42351
lowerneck -3.50085 -12.3565 -13.0653
upperneck -7.73244 -16.9182 26.9501
head 2.04861 -9.13774 9.52156
rclavicle -3.18055e-014 3.18055e-015
rhumerus -2.05174 19.1803 -76.1234
rradius 65.3102
rwrist 0.815703
rhand -34.6013 37.6323
rfingers 7.12502
rthumb -7.76 7.79468
lclavicle -3.18055e-014 3.18055e-015
lhumerus 10.4705 -25.3748 54.2656
lradius 87.382
lwrist -2.39212
lhand -3.17629 15.6929
lfingers 7.12502
lthumb 22.5448 44.3967
rfemur -48.9632 7.92013 0.720568
rtibia 84.2712
rfoot 11.5518 -11.8967
rtoes 17.7779
lfemur -50.5062 22.2278 13.5641
ltibia 70.3473
lfoot 22.8662 -0.787151
ltoes 18.3223
496
root 7.66858 10.1983 12.9078 143.291 -11.3269 189.727
lowerback 39.7389 11.4967 -2.07572
upperback 17.5626 6.74916 -2.07401
thorax 0.402187 0.406241 -3.36617
lowerneck -3.43246 -12.2042 -13.3846
upperneck -7.60904 -16.7423 27.2377
head 2.10082 -9.04804 9.69178
rclavicle -8.42847e-014 3.49861e-014
rhumerus -2.23306 19.2958 -76.3449
rradius 65.648
rwrist 0.801661
rhand -34.7021 37.8472
rfingers 7.12502
rthumb -7.85729 8.01318
lclavicle -8.42847e-014 3.49861e-014
lhumerus 10.1168 -25.2522 54.3838
lradius 87.3979
lwrist -2.61321
lhand -3.31459 15.6593
lfingers 7.12502
lthumb 22.412 44.3791
rfemur -49.1969 7.96331 0.695793
rtibia 84.6517
rfoot 12.7941 -7.64486
rtoes 4.27571
lfemur -50.4356 22.2338 13.3515
ltibia 70.3776
lfoot 22.8356 -0.660384
ltoes 19.0736
497
root 7.6686 10.1998 12.8999 143.384 -11.4614 189.406
lowerback 39.7904 11.6013 -2.53782
upperback 17.4246 6.724 -2.19773
thorax 0.201769 0.380932 -3.2633
lowerneck -3.2872 -12.1351 -13.2943
upperneck -7.62667 -16.6595 27.2071
head 2.04202 -9.01961 9.69108
rclavicle 1.04958e-013 -5.08889e-014
rhumerus -2.41963 19.4263 -76.601
rradius 65.8448
rwrist 0.896828
rhand -35.3264 38.2419
rfingers 7.12502
rthumb -8.45982 8.43134
lclavicle 1.04958e-013 -5.08889e-014
lhumerus 9.79854 -25.1894 54.4768
lradius 87.438
lwrist -2.88616
lhand -3.95286 15.6956
lfingers 7.12502
lthumb 21.7992 44.4879
rfemur -49.5089 7.91949 0.51961
rtibia 85.0206
rfoot 12.8396 -3.49119
rtoes -9.96102
lfemur -50.4232 22.3646 12.9811
ltibia 70.3803
lfoot 22.8891 -0.77019
ltoes 19.2209
498
root 7.6679 10.2118 12.9012 143.269 -11.4472 189.332
lowerback 39.9462 11.6697 -2.64265
upperback 17.3581 6.7556 -2.19408
thorax 0.0734856 0.386787 -3.22591
lowerneck -3.29301 -12.1643 -13.1745
upperneck -7.54088 -16.6895 26.9466
head 2.03114 -9.01851 9.58047
rclavicle 3.18055e-015 4.45278e-014
rhumerus -2.56851 19.4648 -76.6549
rradius 66.0733
rwrist 0.83587
rhand -35.4327 38.1153
rfingers 7.12502
rthumb -8.56238 8.3089
lclavicle 3.18055e-015 4.45278e-014
lhumerus 9.58146 -25.0992 54.7058
lradius 87.4379
lwrist -3.49408
lhand -4.60815 15.9293
lfingers 7.12502
lthumb 21.1699 44.7934
rfemur -49.5237 7.96002 0.735816
rtibia 85.2974
rfoot 11.7281 -2.36037
rtoes -13.0819
lfemur -50.1715 22.2976 12.9853
ltibia 70.2922
lfoot 22.7818 -0.73877
ltoes 18.7953
499
root 7.6702 10.2267 12.9075 143.235 -11.3969 189.362
lowerback 39.847 11.6929 -2.6325
upperback 17.3951 6.79683 -2.1662
thorax 0.142914 0.404732 -3.21059
lowerneck -3.6103 -12.1402 -13.3821
upperneck -7.23311 -16.6666 26.9536
head 2.18785 -8.95978 9.58636
rclavicle -6.36111e-015 8.5875e-014
rhumerus -2.54654 19.3709 -76.7274
rradius 66.2716
rwrist 0.758034
rhand -34.8743 37.8633
rfingers 7.12502
rthumb -8.02346 8.0356
lclavicle -6.36111e-015 8.5875e-014
lhumerus 9.52974 -25.0095 54.7475
lradius 87.4299
lwrist -4.15116
lhand -4.664 16.2504
lfingers 7.12502
lthumb 21.1162 45.1206
rfemur -49.6553 8.01464 1.06349
rtibia 85.6564
rfoot 10.2486 -3.65554
rtoes -6.06056
lfemur -50.0152 22.2588 13.0559
ltibia 70.1837
lfoot 22.6886 -0.640471
ltoes 18.8099
500
root 7.67821 10.2482 12.9117 143.438 -11.4227 189.261
lowerback 39.4072 11.7835 -2.9025
upperback 17.4592 6.87914 -2.14437
thorax 0.31725 0.438343 -3.06117
lowerneck -3.86707 -12.1222 -13.5038
upperneck -7.12273 -16.6369 26.9787
head 2.27128 -8.92038 9.59638
rclavicle -3.18055e-015 1.90833e-014
rhumerus -2.53891 19.2775 -76.8652
rradius 66.5594
rwrist 0.690151
rhand -34.3798 38.1
rfingers 7.12502
rthumb -7.54621 8.25457
lclavicle -3.18055e-015 1.90833e-014
lhumerus 9.50833 -24.9385 54.7769
lradius 87.3772
lwrist -4.5424
lhand -4.63588 16.4255
lfingers 7.12502
lthumb 21.1432 45.2926
rfemur -49.9546 8.0887 1.20281
rtibia 86.0422
rfoot 8.13578 -5.52775
rtoes 3.06264
lfemur -50.0279 22.4891 12.8864
ltibia 70.0644
lfoot 22.6538 -0.589669
ltoes 19.3421
